<?xml version="1.0" encoding="UTF-8"?>
<!DOCTYPE svg PUBLIC "-//W3C//DTD SVG 1.1//EN" "http://www.w3.org/Graphics/SVG/1.1/DTD/svg11.dtd">
<!-- Creator: CorelDRAW X7 -->
<svg xmlns="http://www.w3.org/2000/svg" xml:space="preserve" width="107px" height="112px" version="1.1" style="shape-rendering:geometricPrecision; text-rendering:geometricPrecision; image-rendering:optimizeQuality; fill-rule:evenodd; clip-rule:evenodd"
viewBox="0 0 107 111"
 xmlns:xlink="http://www.w3.org/1999/xlink">
 <defs>
  <style type="text/css">
   <![CDATA[
    .fil0 {fill:#00BDF4}
    .fil1 {fill:#2CC7F3}
   ]]>
  </style>
 </defs>
 <g id="Layer_x0020_1">
  <metadata id="CorelCorpID_0Corel-Layer"/>
  <path class="fil0" d="M49 24c1,0 3,-1 4,-1 2,0 3,1 4,1 0,-4 0,-10 1,-13 0,-1 0,-1 0,-2 1,0 1,-1 2,-1 1,0 1,0 2,0 2,1 2,0 3,1l3 1c0,0 1,0 1,0l2 1c1,0 1,0 1,1l4 2c0,0 1,0 1,0 1,1 1,1 2,2 1,0 1,0 1,0 0,0 0,0 0,0 0,0 0,0 1,0 1,1 4,5 5,6 1,0 1,0 1,0 0,1 0,0 1,1 0,0 0,0 0,1 0,0 0,0 0,0 2,1 3,3 4,5l1 2c1,1 1,2 2,4l1 2c0,0 0,0 0,1l1 2c0,1 0,1 0,2 1,1 2,3 2,5 0,1 0,2 0,3 0,1 1,8 0,10l0 2c0,2 0,3 -1,5l-1 4c0,1 -1,2 -1,3 -1,1 0,1 -1,3 0,0 -1,0 -1,1l-1 1c0,1 0,1 0,1l-1 1c0,1 0,1 0,1l-2 3c0,0 0,0 0,0l-6 6c0,1 -1,1 -2,2 0,0 0,0 0,1l-1 0c0,0 -1,0 -1,1 0,0 0,0 0,0 -1,0 -3,1 -3,2l-2 1c0,0 0,0 -1,0 0,1 0,1 0,1l-3 1c0,0 0,0 -1,0 0,1 0,1 -1,1 -1,0 -2,1 -2,1 -1,0 -2,0 -2,0 -1,0 -2,0 -2,1 -1,0 -1,0 -2,0 -1,0 -3,0 -4,1 -1,0 -2,0 -3,0 -1,0 -4,0 -5,-1 -1,0 -2,0 -3,0 -1,0 -2,0 -3,-1 0,0 0,0 0,0 -1,0 -1,0 -2,0 -1,0 -4,-2 -5,-2l-1 -1c-1,0 -2,0 -2,-1 -1,0 -1,0 -2,0 0,-1 -3,-2 -4,-3 0,-1 0,-1 -1,-1 0,0 -1,-1 -1,-1 -1,-1 -5,-5 -6,-6 -1,-1 -1,-1 -2,-2l0 -1c0,0 0,0 0,0l-5 -9c0,0 0,0 0,0l-2 -4c0,-1 0,-1 0,-1 -1,-1 -1,-2 -1,-3 0,0 0,-1 0,-2 -1,0 -1,-1 -1,-2 0,-2 0,-2 0,-3 0,-1 0,-2 0,-4 0,-1 0,-3 0,-4l1 -9c1,-2 1,-3 2,-5 0,0 0,-1 0,-1 0,-1 1,-1 1,-2 0,0 0,-1 1,-2 0,0 0,-1 0,-1 0,0 0,0 1,0l1 -2c0,-1 1,-3 2,-4l1 -1c0,-1 2,-2 3,-3 0,0 0,0 0,0 1,-1 2,-2 3,-3 0,-1 0,-1 0,-1 1,-1 2,-1 3,-2 0,0 0,0 0,0 1,0 1,0 1,-1 1,0 1,0 1,0 2,-2 3,-2 5,-3l3 -1c0,-1 0,-1 1,-1 1,0 2,-1 2,-1 2,0 1,0 4,-1 1,0 1,0 2,0 1,-1 1,0 3,-1 0,-1 0,-1 0,-2 1,-2 0,-4 -1,-5 -1,0 -2,0 -3,0 -1,0 -2,0 -4,1l-2 0c0,0 0,0 -1,1 0,0 -3,0 -4,1l-3 1c-1,1 -1,1 -1,1 -1,0 -2,1 -2,1l-4 2c0,0 0,1 -1,1 0,0 0,0 -1,0 0,1 0,1 0,1l-3 2c-1,1 -1,1 -1,1 0,1 0,1 -1,1l-5 6c-1,1 -2,3 -3,4 0,1 -1,2 -2,3l-1 1c0,0 0,1 0,1 0,0 0,0 0,0 0,1 0,1 -1,1 0,1 0,1 0,2 0,0 0,0 -1,1 0,0 0,0 0,1 0,0 0,0 0,1 0,0 -1,0 -1,0 0,1 0,1 0,1 0,1 -1,2 -1,3l-2 10c0,0 0,12 0,13 0,0 0,0 0,1 0,1 1,2 1,3 0,1 0,2 0,3 1,1 1,4 1,4 1,1 1,1 1,1 0,0 0,1 0,1 0,1 1,2 1,3l1 1c0,1 2,6 3,7 1,1 2,2 3,3l9 10c1,1 3,3 4,4l2 1c1,0 1,0 1,0 1,1 2,1 2,2 2,0 3,1 4,1l1 1c0,0 1,0 1,0 1,0 1,1 1,1 1,0 2,0 2,0l3 1c1,0 2,0 3,1 3,1 13,0 16,0 2,0 3,0 4,-1 1,0 1,0 2,0 0,0 0,0 1,0 1,0 1,0 1,-1l5 -1c1,-1 1,-1 2,-1 0,0 1,0 1,-1l7 -4c1,0 1,0 1,0l1 -1c1,0 1,-1 1,-1l5 -5c1,0 1,-1 2,-1 1,-1 2,-2 3,-4 0,0 0,0 0,-1 1,-1 3,-3 4,-5l3 -7c0,0 0,0 0,-1l1 -2c1,-1 1,-4 2,-5 0,-1 0,-2 0,-3 0,-1 0,-1 1,-2 0,0 0,-5 0,-6 0,-2 0,-4 0,-7 0,-1 0,-1 0,-3 0,0 0,0 0,-1 0,-1 -1,-1 -1,-1l-1 -6c0,0 0,-1 0,-2 -1,-1 -1,-1 -1,-1 -1,-3 -1,-3 -2,-6 -1,-1 -1,-1 -1,-2l-4 -7c0,0 0,0 -1,0l-2 -4c-1,0 -1,-1 -2,-1 0,-1 -1,-1 -1,-2l-5 -5c-1,0 -1,0 -2,-1 -1,-1 -3,-2 -5,-3l-2 -1c0,0 0,0 -1,-1 0,0 0,0 -1,0 0,0 0,0 -1,0 -1,-1 -1,-1 -1,-1 -1,0 -1,0 -1,0 -1,-1 -1,-1 -2,-1 -1,0 -2,-1 -3,-1l-2 0c-1,-1 -2,-1 -3,-1 0,0 -1,0 -1,0 -1,0 -1,0 -2,0 -1,1 -1,0 -3,1 0,0 0,0 -1,0 0,1 -3,2 -3,3 0,1 -1,1 -1,1 -1,2 -1,4 -1,5 -1,5 -1,9 -1,14z"/>
  <path class="fil0" d="M68 30c0,5 -1,9 -4,13 -2,2 -6,5 -11,5 -2,0 -5,0 -6,-1 -6,-3 -9,-10 -8,-17 -1,1 -1,1 -2,2 0,0 0,0 0,1 -2,3 -2,4 -3,8 0,0 0,1 0,1 -1,1 0,28 0,34 0,1 0,4 1,5 0,1 0,1 0,1l1 2c0,1 0,1 1,1 2,4 5,7 9,9 1,0 1,0 2,0 4,1 7,1 11,0l3 -1c2,-1 3,-1 5,-3l3 -5c1,0 1,0 1,-1 0,0 0,0 0,-1 1,0 1,0 1,-1 1,-2 1,-2 1,-5l0 -4c0,-1 0,-2 0,-3 0,-7 0,-15 0,-22 0,-3 1,-4 0,-7 0,-2 0,-2 -1,-4 0,-1 0,-1 -1,-3 -1,-1 -2,-3 -3,-4z"/>
  <path class="fil1" d="M53 29c1,-1 2,1 3,2 0,1 0,8 0,10 0,1 -1,3 -2,3 -1,1 -2,0 -3,-2 0,0 0,-8 0,-10 0,-1 1,-3 2,-3zm-4 -5c0,0 -1,0 -1,0 -1,0 -1,1 -2,1 -1,0 -2,1 -3,1 -1,1 -4,3 -4,4 -1,7 2,14 8,17 1,1 4,1 6,1 5,0 9,-3 11,-5 3,-4 4,-8 4,-13 0,0 -1,-2 -2,-2 -1,-1 -1,-1 -2,-2 -2,-1 -5,-2 -7,-2 -1,0 -2,-1 -4,-1 -1,0 -3,1 -4,1z"/>
  <path class="fil0" d="M53 29c-1,0 -2,2 -2,3 0,2 0,10 0,10 1,2 2,3 3,2 1,0 2,-2 2,-3 0,-2 0,-9 0,-10 -1,-1 -2,-3 -3,-2z"/>
 </g>
</svg>
